{
  "accessors": [
    {
      "bufferView": 2,
      "componentType": 5126,
      "count": 31369,
      "max": [
        6.4084615707397461,
        22.163782119750977,
        5.0691909790039062
      ],
      "min": [
        -6.6509804725646973,
        0.78214943408966064,
        -6.3534893989562988
      ],
      "type": "VEC3"
    },
    {
      "bufferView": 2,
      "byteOffset": 376428,
      "componentType": 5126,
      "count": 31369,
      "max": [
        0.99999940395355225,
        1,
        0.9999958872795105
      ],
      "min": [
        -0.99999946355819702,
        -1,
        -1
      ],
      "type": "VEC3"
    },
    {
      "bufferView": 3,
      "componentType": 5126,
      "count": 31369,
      "max": [
        0.9999924898147583,
        0.99999570846557617,
        1,
        1
      ],
      "min": [
        -0.99998277425765991,
        -1,
        -1,
        -1
      ],
      "type": "VEC4"
    },
    {
      "bufferView": 1,
      "componentType": 5126,
      "count": 31369,
      "max": [
        1,
        1
      ],
      "min": [
        -5.5511151231257827e-17,
        -7.4505805969238281e-09
      ],
      "type": "VEC2"
    },
    {
      "bufferView": 0,
      "componentType": 5125,
      "count": 169128,
      "max": [
        31368
      ],
      "min": [
        0
      ],
      "type": "SCALAR"
    },
    {
      "bufferView": 2,
      "byteOffset": 752856,
      "componentType": 5126,
      "count": 4,
      "max": [
        -0.97102713584899902,
        1.8263063430786133,
        -0.50310379266738892
      ],
      "min": [
        -1.0425068140029907,
        1.8263063430786133,
        -0.70359599590301514
      ],
      "type": "VEC3"
    },
    {
      "bufferView": 2,
      "byteOffset": 752904,
      "componentType": 5126,
      "count": 4,
      "max": [
        0,
        -1,
        0
      ],
      "min": [
        0,
        -1,
        0
      ],
      "type": "VEC3"
    },
    {
      "bufferView": 3,
      "byteOffset": 501904,
      "componentType": 5126,
      "count": 4,
      "max": [
        0.98463034629821777,
        0,
        -0.17465190589427948,
        1
      ],
      "min": [
        0.98462826013565063,
        0,
        -0.17466294765472412,
        1
      ],
      "type": "VEC4"
    },
    {
      "bufferView": 1,
      "byteOffset": 250952,
      "componentType": 5126,
      "count": 4,
      "max": [
        0.026619791984558105,
        0.60350275039672852
      ],
      "min": [
        0.021910429000854492,
        0.59287774562835693
      ],
      "type": "VEC2"
    },
    {
      "bufferView": 0,
      "byteOffset": 676512,
      "componentType": 5125,
      "count": 6,
      "max": [
        3
      ],
      "min": [
        0
      ],
      "type": "SCALAR"
    }
  ],
  "asset": {
    "extras": {
      "author": "JoaoMP (https://sketchfab.com/JoaoMP)",
      "license": "CC-BY-4.0 (http://creativecommons.org/licenses/by/4.0/)",
      "source": "https://sketchfab.com/3d-models/mr-bean-4a0437ed060343b2a7d29c8d7e2b71e6",
      "title": "Mr Bean"
    },
    "generator": "Sketchfab-6.95.0",
    "version": "2.0"
  },
  "bufferViews": [
    {
      "buffer": 0,
      "byteLength": 676536,
      "byteOffset": 0,
      "name": "floatBufferViews",
      "target": 34963
    },
    {
      "buffer": 0,
      "byteLength": 250984,
      "byteOffset": 676536,
      "byteStride": 8,
      "name": "floatBufferViews",
      "target": 34962
    },
    {
      "buffer": 0,
      "byteLength": 752952,
      "byteOffset": 927520,
      "byteStride": 12,
      "name": "floatBufferViews",
      "target": 34962
    },
    {
      "buffer": 0,
      "byteLength": 501968,
      "byteOffset": 1680472,
      "byteStride": 16,
      "name": "floatBufferViews",
      "target": 34962
    }
  ],
  "buffers": [
    {
      "byteLength": 2182440,
      "uri": "scene.bin"
    }
  ],
  "images": [
    {
      "uri": "textures/lambert19_baseColor.jpeg"
    }
  ],
  "materials": [
    {
      "doubleSided": true,
      "emissiveFactor": [
        0,
        0,
        0
      ],
      "name": "lambert19",
      "pbrMetallicRoughness": {
        "baseColorFactor": [
          1,
          1,
          1,
          1
        ],
        "baseColorTexture": {
          "index": 0,
          "texCoord": 0
        },
        "metallicFactor": 0,
        "roughnessFactor": 0.59999999999999998
      }
    },
    {
      "doubleSided": true,
      "emissiveFactor": [
        0,
        0,
        0
      ],
      "name": "lambert1",
      "pbrMetallicRoughness": {
        "baseColorFactor": [
          0.5,
          0.5,
          0.5,
          1
        ],
        "metallicFactor": 0,
        "roughnessFactor": 0.59999999999999998
      }
    }
  ],
  "meshes": [
    {
      "name": "polySurface3_lambert19_0",
      "primitives": [
        {
          "attributes": {
            "NORMAL": 1,
            "POSITION": 0,
            "TANGENT": 2,
            "TEXCOORD_0": 3
          },
          "indices": 4,
          "material": 0,
          "mode": 4
        }
      ]
    },
    {
      "name": "polySurface3_lambert1_0",
      "primitives": [
        {
          "attributes": {
            "NORMAL": 6,
            "POSITION": 5,
            "TANGENT": 7,
            "TEXCOORD_0": 8
          },
          "indices": 9,
          "material": 1,
          "mode": 4
        }
      ]
    }
  ],
  "nodes": [
    {
      "children": [
        1
      ],
      "name": "RootNode (gltf orientation matrix)",
      "rotation": [
        -0.70710678118654746,
        -0,
        -0,
        0.70710678118654757
      ]
    },
    {
      "children": [
        2
      ],
      "name": "RootNode (model correction matrix)"
    },
    {
      "children": [
        3
      ],
      "matrix": [
        1,
        0,
        0,
        0,
        0,
        0,
        1,
        0,
        0,
        -1,
        0,
        0,
        0,
        0,
        0,
        1
      ],
      "name": "Mr Bean.fbx"
    },
    {
      "children": [
        4
      ],
      "name": "RootNode"
    },
    {
      "children": [
        5,
        6
      ],
      "name": "polySurface3"
    },
    {
      "mesh": 0,
      "name": "polySurface3_lambert19_0"
    },
    {
      "mesh": 1,
      "name": "polySurface3_lambert1_0"
    }
  ],
  "samplers": [
    {
      "magFilter": 9729,
      "minFilter": 9987,
      "wrapS": 10497,
      "wrapT": 10497
    }
  ],
  "scene": 0,
  "scenes": [
    {
      "name": "OSG_Scene",
      "nodes": [
        0
      ]
    }
  ],
  "textures": [
    {
      "sampler": 0,
      "source": 0
    }
  ]
}

